<svg xmlns="http://www.w3.org/2000/svg" width="1200" height="800" viewBox="0 0 1200 800" fill="none">
  <rect width="1200" height="800" fill="#EEE2D0"/>
  <rect x="72" y="72" width="1056" height="656" rx="34" fill="#FCF9F4"/>
  <rect x="134" y="124" width="932" height="240" rx="28" fill="#E8DAC4"/>
  <circle cx="282" cy="244" r="70" fill="#8C6A3C" fill-opacity="0.15"/>
  <circle cx="486" cy="244" r="70" fill="#8C6A3C" fill-opacity="0.12"/>
  <circle cx="690" cy="244" r="70" fill="#8C6A3C" fill-opacity="0.1"/>
  <circle cx="894" cy="244" r="70" fill="#8C6A3C" fill-opacity="0.08"/>
  <rect x="134" y="408" width="284" height="246" rx="24" fill="#F4ECDD"/>
  <rect x="458" y="408" width="284" height="246" rx="24" fill="#F4ECDD"/>
  <rect x="782" y="408" width="284" height="246" rx="24" fill="#F4ECDD"/>
  <rect x="170" y="456" width="212" height="24" rx="12" fill="#8C6A3C" fill-opacity="0.18"/>
  <rect x="494" y="456" width="212" height="24" rx="12" fill="#8C6A3C" fill-opacity="0.18"/>
  <rect x="818" y="456" width="212" height="24" rx="12" fill="#8C6A3C" fill-opacity="0.18"/>
  <rect x="170" y="504" width="168" height="96" rx="18" fill="#E3D1B5"/>
  <rect x="494" y="504" width="168" height="96" rx="18" fill="#E3D1B5"/>
  <rect x="818" y="504" width="168" height="96" rx="18" fill="#E3D1B5"/>
</svg>
